HIERARCHY
ROOT Hips
{
  OFFSET 263.056 91.6644 -274.608
  CHANNELS 6 Xposition Yposition Zposition Zrotation Xrotation Yrotation
  JOINT LeftUpLeg
  {
    OFFSET 8.64259 1.95398 -2.38835
    CHANNELS 3 Zrotation Xrotation Yrotation
    JOINT LeftLeg
    {
      OFFSET 43.7702 0 0
      CHANNELS 3 Zrotation Xrotation Yrotation
      JOINT LeftFoot
      {
        OFFSET 40.6238 0 0
        CHANNELS 3 Zrotation Xrotation Yrotation
        JOINT LeftToeBase
        {
          OFFSET 12.7242 0 0
          CHANNELS 3 Zrotation Xrotation Yrotation
          End Site
          {
            OFFSET 0 0 0
          }
        }
      }
    }
  }
  JOINT RightUpLeg
  {
    OFFSET -8.2249 1.95398 -2.59336
    CHANNELS 3 Zrotation Xrotation Yrotation
    JOINT RightLeg
    {
      OFFSET 43.5653 0 0
      CHANNELS 3 Zrotation Xrotation Yrotation
      JOINT RightFoot
      {
        OFFSET 40.6238 0 0
        CHANNELS 3 Zrotation Xrotation Yrotation
        JOINT RightToeBase
        {
          OFFSET 12.7242 0 0
          CHANNELS 3 Zrotation Xrotation Yrotation
          End Site
          {
            OFFSET 0 0 0
          }
        }
      }
    }
  }
  JOINT Spine
  {
    OFFSET 0.165834 0.87714 6.61349
    CHANNELS 3 Zrotation Xrotation Yrotation
    JOINT Spine1
    {
      OFFSET 7.38963 1.71661e-005 0
      CHANNELS 3 Zrotation Xrotation Yrotation
      JOINT Spine2
      {
        OFFSET 11.9445 1.14441e-005 0
        CHANNELS 3 Zrotation Xrotation Yrotation
        JOINT Spine3
        {
          OFFSET 14.7254 4.19617e-005 0
          CHANNELS 3 Zrotation Xrotation Yrotation
          JOINT Spine4
          {
            OFFSET 10.9679 0 0
            CHANNELS 3 Zrotation Xrotation Yrotation
            JOINT RightShoulder
            {
              OFFSET 2.46616 -1.6653 3.69651
              CHANNELS 3 Zrotation Xrotation Yrotation
              JOINT RightArm
              {
                OFFSET 13.0012 0 0
                CHANNELS 3 Zrotation Xrotation Yrotation
                JOINT RightForeArm
                {
                  OFFSET 28.7848 1.52588e-005 0
                  CHANNELS 3 Zrotation Xrotation Yrotation
                  JOINT RightHand
                  {
                    OFFSET 26.5688 1.52588e-005 0
                    CHANNELS 3 Zrotation Xrotation Yrotation
                    End Site
                    {
                      OFFSET 0 0 0
                    }
                  }
                }
              }
            }
            JOINT LeftShoulder
            {
              OFFSET 2.38034 -1.29275 -3.7523
              CHANNELS 3 Zrotation Xrotation Yrotation
              JOINT LeftArm
              {
                OFFSET 16.3182 6.10352e-005 0
                CHANNELS 3 Zrotation Xrotation Yrotation
                JOINT LeftForeArm
                {
                  OFFSET 27.0901 0 0
                  CHANNELS 3 Zrotation Xrotation Yrotation
                  JOINT LeftHand
                  {
                    OFFSET 24.5451 1.52588e-005 0
                    CHANNELS 3 Zrotation Xrotation Yrotation
                    End Site
                    {
                      OFFSET 0 0 0
                    }
                  }
                }
              }
            }
            JOINT Neck
            {
              OFFSET 5.0226 -0.0266342 0
              CHANNELS 3 Zrotation Xrotation Yrotation
              JOINT Head
              {
                OFFSET 6.69364 2.86102e-005 0
                CHANNELS 3 Zrotation Xrotation Yrotation
                End Site
                {
                  OFFSET 0 0 0
                }
              }
            }
          }
        }
      }
    }
  }
}
MOTION
Frames:	18
Frame Time:	0.0416667
-56.6447 97.4091 46.4306 -177.75 -87.0598 -177.986 -171.873 1.06503 91.5066 -6.32755 7.25655 -0.12143 59.3161 2.00157 6.93442 30.7941 3.0952 -12.7745 177.062 2.28928 89.0088 -12.185 4.5764 -1.02476 63.6501 -1.24064 -0.643534 29.6975 -0.464558 9.47344 0.0936334 6.6953 -90.015 13.4715 0.178549 -0.0528839 1.80052 0.176047 -0.0607026 -20.7347 0.186191 0.00321949 -0.722085 0.186186 0.00321441 81.3943 -51.2192 -113.371 20.7638 -17.8181 6.10863 22.594 4.01035 -87.2429 -15.1762 -0.463091 -2.15462 -102.486 -42.6083 57.2398 -27.6696 4.82138 9.02713 -18.6187 -11.3345 -78.0042 9.76789 -0.0493286 -3.98245 7.79428 0.742926 2.92867 -13.3677 0.238208 -1.31278 
-56.6494 97.378 46.369 -178.339 -87.0004 -178.474 -171.849 1.13468 91.6711 -6.45129 8.29753 -0.175964 59.5452 2.6734 8.00038 29.9673 2.41665 -13.6482 177.116 2.17621 89.1229 -12.0689 4.49615 -1.02328 63.7896 -1.32703 -0.697183 29.2419 -0.515971 9.22345 0.0803378 6.69646 -90.0273 13.4822 0.146181 -0.0733687 1.8113 0.14282 -0.0797337 -20.7239 0.161477 -0.0260397 -0.711274 0.161475 -0.0260433 81.1022 -51.4483 -113.714 20.6457 -17.5228 5.81943 21.5684 4.70959 -87.4134 -13.8838 -0.461476 -1.56282 -102.564 -42.6652 57.1474 -27.611 4.83256 9.23969 -18.1461 -11.0418 -78.4109 11.1002 0.0525617 -3.1588 6.28624 0.310854 4.0741 -11.2425 -0.326687 -2.28694 
-56.612 97.3838 46.3676 179.93 -87.033 179.841 -171.9 1.44325 91.6743 -6.93388 8.67603 -0.158444 59.2776 2.34971 8.20915 30.9138 3.23251 -13.3019 177.109 2.11663 89.1457 -11.8858 4.6128 -0.992058 63.7128 -1.33138 -0.700103 29.3887 -0.488628 9.11113 0.0839586 6.6867 -90.0254 13.5006 0.154257 -0.070696 1.82964 0.151 -0.0774171 -20.7056 0.168371 -0.0210639 -0.692948 0.168372 -0.0210683 81.249 -51.3949 -113.518 20.8734 -17.4443 5.88801 21.6162 4.87845 -87.7849 -13.7762 -0.482634 -1.32251 -102.677 -42.5838 56.936 -27.6032 4.66062 9.29165 -18.4519 -11.2188 -78.1989 10.0967 -0.0342581 -3.85102 6.35734 0.298547 3.07787 -11.1288 -0.237556 -1.00934 
-56.5807 97.4004 46.3841 -178.626 -86.8963 -178.779 -171.896 1.12006 91.612 -6.63561 8.53296 -0.1571 59.2566 2.35418 8.06139 30.3747 2.70609 -12.5659 177.015 2.09508 89.0286 -12.1131 4.36596 -0.980491 63.6705 -1.2902 -0.674741 29.5713 -0.464955 9.15675 0.100143 6.70005 -90.0231 13.4738 0.187544 -0.0702047 1.80292 0.184276 -0.0783952 -20.7323 0.199972 -0.0105938 -0.7197 0.199974 -0.0106009 81.3258 -51.3652 -113.417 20.815 -17.4855 5.90103 22.0569 4.56265 -87.5962 -14.4283 -0.461333 -1.81631 -102.736 -42.6071 56.8564 -27.5907 4.73758 9.16606 -18.4922 -11.2084 -78.2438 10.6263 0.000556593 -3.57208 6.58101 0.26553 3.21656 -11.3106 -0.285034 -1.24549 
-56.5993 97.3552 46.4196 179.553 -87.1931 179.429 -171.831 1.44276 91.6213 -6.79037 8.38774 -0.243274 60.0093 3.08047 8.08134 29.2829 1.78042 -13.259 177.15 2.28836 89.1285 -12.0016 4.58096 -1.03926 63.7787 -1.355 -0.715445 29.5307 -0.461369 8.9918 0.0877971 6.66257 -90.0254 13.5488 0.161885 -0.0717954 1.87787 0.158569 -0.0788557 -20.6574 0.175971 -0.0198209 -0.644724 0.17597 -0.0198296 81.2522 -51.5412 -113.46 20.5145 -17.5688 5.85034 22.1696 4.18696 -87.2626 -14.8434 -0.464134 -1.99339 -102.73 -42.5711 56.8489 -27.6106 4.76093 9.1967 -18.4427 -11.1707 -78.3122 9.9564 -0.0409538 -3.91096 6.46841 0.229963 3.26916 -11.2501 -0.33174 -1.18888 
-56.5886 97.367 46.4554 178.545 -87.1394 178.374 -171.802 1.29408 91.6153 -6.61124 8.4197 -0.290082 59.6705 2.87605 8.17237 30.0811 2.51112 -13.5601 177.029 2.31593 89.0298 -12.1943 4.62566 -0.956308 63.9076 -1.35581 -0.714678 29.3648 -0.503701 9.31626 0.0766042 6.67082 -90.0192 13.5323 0.142678 -0.0568198 1.86138 0.14004 -0.0630427 -20.6738 0.153161 -0.0113062 -0.661197 0.153158 -0.0113056 81.1991 -51.6189 -113.508 20.499 -17.4267 5.86742 21.4497 3.91821 -87.2811 -14.5495 -0.45768 -1.89492 -102.723 -42.617 56.8819 -27.5324 4.57288 9.0689 -18.4625 -11.115 -78.2784 10.3582 -0.0837407 -4.30899 6.60326 0.288172 3.3081 -11.3599 -0.283634 -1.20794 
-56.6938 97.3562 46.504 -172.956 -87.0278 -173.461 -171.851 0.989638 91.3684 -6.41722 7.97777 -0.337291 59.7574 2.96658 8.15182 29.9394 2.36115 -13.2066 177.056 2.52508 88.813 -12.7338 4.16466 -1.17562 64.104 -1.33165 -0.698051 29.5254 -0.475055 9.2144 0.118426 6.68434 -89.9959 13.5052 0.236939 -0.0222267 1.83431 0.235738 -0.0326397 -20.701 0.232661 0.0500137 -0.688359 0.232672 0.0500133 81.4017 -51.3464 -113.313 20.6618 -17.2449 5.76997 20.8413 3.66904 -87.254 -13.5426 -0.438276 -1.57612 -102.804 -42.7064 56.798 -27.4714 4.64284 8.98128 -19.0854 -11.268 -78.6711 11.3046 -0.0312875 -3.8837 6.47327 0.256754 3.66565 -11.0797 -0.362886 -1.51537 
-56.6992 97.3511 46.5722 -170.288 -87.1371 -170.692 -171.834 1.08831 91.4542 -6.39338 8.14085 -0.334772 59.4431 2.7809 8.52596 30.8221 3.20564 -14.248 177.107 2.52711 88.94 -12.5843 4.10826 -1.1525 64.1019 -1.36344 -0.716686 29.3271 -0.49086 9.00508 0.130763 6.67296 -90.0004 13.528 0.259218 -0.034295 1.85708 0.257461 -0.0456834 -20.6783 0.257537 0.0451993 -0.665627 0.257539 0.0451897 81.542 -51.189 -113.164 20.723 -17.2991 5.53572 20.5603 3.46918 -87.3113 -14.4903 -0.50163 -1.49651 -102.723 -42.6133 56.8797 -27.2959 5.08566 8.84466 -18.7588 -10.9794 -79.0189 10.9722 -0.0398106 -3.94055 6.54312 0.264174 3.64801 -11.1195 -0.352883 -1.53015 
-56.5611 97.389 46.6384 -177.972 -87.0143 -178.146 -171.792 0.960861 91.5814 -6.50972 8.10915 -0.256671 60.0305 3.04258 7.73778 29.2464 1.68105 -12.452 177.037 2.03501 89.0148 -12.0893 4.35519 -1.03061 63.8615 -1.35088 -0.711094 29.6245 -0.449856 9.02256 0.107161 6.70522 -90.032 13.4635 0.19712 -0.0893954 1.79258 0.192994 -0.0979785 -20.7427 0.214873 -0.0260121 -0.730058 0.214875 -0.026015 81.8492 -50.973 -112.791 20.5305 -17.5064 5.28827 20.4078 3.64825 -87.5715 -15.2556 -0.500597 -1.84346 -102.838 -42.6674 56.7276 -26.8395 5.38424 8.60355 -18.3242 -10.6032 -79.6742 10.9956 -0.0175477 -3.74715 6.61609 0.379266 3.54221 -11.0077 -0.230259 -1.41375 
-57.0901 97.3635 46.7412 -163.752 -87.8913 -164.929 -171.86 1.68246 91.0331 -6.30546 7.75483 -0.666587 59.5134 2.54291 7.79004 30.0374 2.40558 -12.6045 177.317 3.60713 88.6416 -13.22 4.37649 -1.55014 64.4084 -1.31371 -0.682201 29.4761 -0.492718 9.40398 0.145207 6.62751 -89.9109 13.6187 0.331313 0.135386 1.94775 0.336953 0.120666 -20.5876 0.275305 0.228703 -0.574969 0.275299 0.228694 82.2532 -50.4889 -112.368 20.5089 -17.3098 4.71575 19.8289 2.64809 -89.2678 -15.7616 -0.617123 -1.18384 -102.552 -42.5375 57.1054 -25.9571 5.71064 8.34597 -19.1166 -9.99139 -82.2245 12.32 0.114748 -2.77124 6.88752 0.382345 3.5168 -11.0821 -0.235146 -1.33575 
-57.0502 97.3347 46.7892 152.371 -88.1417 151.176 -172.067 2.33363 90.8819 -6.4363 9.37663 -0.681499 59.1694 2.61257 8.4547 30.9829 3.30067 -13.4402 177.196 3.83238 88.5562 -13.2375 5.65924 -1.33133 64.4845 -1.26391 -0.654007 29.6321 -0.467898 9.35691 0.00254891 6.59818 -89.9058 13.6782 0.0508553 0.182017 2.00724 0.058825 0.179604 -20.5277 -0.00619937 0.188895 -0.515086 -0.00619846 0.188884 82.6878 -50.1505 -111.843 19.4468 -16.8835 4.00517 18.4944 1.9649 -92.2053 -15.246 -0.704255 -0.140659 -102.277 -42.2982 57.4175 -24.3907 5.91492 7.88502 -17.8355 -8.56111 -86.0641 11.5041 0.182379 -2.12491 6.97062 0.268743 3.53156 -10.8868 -0.347846 -1.4351 
-56.5737 97.3588 46.8437 156.526 -87.4555 156.593 -171.801 2.06279 91.8158 -7.17419 9.47587 -0.316462 59.8137 2.87776 8.159 30.3988 2.76568 -13.1543 177.194 2.26622 89.3419 -11.7527 5.61056 -0.908364 63.7521 -1.38765 -0.734732 29.8806 -0.400562 8.77948 -0.00357439 6.66803 -90.048 13.5378 -0.0303049 -0.0923713 1.86681 -0.0343434 -0.0909594 -20.6683 -0.00114588 -0.0972033 -0.655673 -0.00114958 -0.0972149 83.0426 -49.6624 -111.485 17.8651 -15.7178 2.5672 15.1187 1.16212 -96.9711 -11.6222 -0.67121 1.84961 -101.429 -42.0777 58.6277 -22.4457 5.43791 6.76599 -14.6559 -6.63486 -91.6459 12.0218 0.467069 0.0810281 7.07201 0.460271 3.65643 -10.9375 -0.174623 -1.62328 
-56.474 97.3673 46.7327 150.59 -86.4758 150.184 -172.122 1.14762 91.2813 -6.7152 9.77447 -0.16336 59.5155 2.98282 8.29214 30.4485 2.83603 -13.5651 176.748 1.97977 88.7316 -12.664 5.88635 -0.846497 64.1143 -1.37045 -0.723595 29.9096 -0.417461 9.16992 -0.0926579 6.74825 -90.0052 13.3774 -0.186307 0.0132804 1.70645 -0.185543 0.0214615 -20.8288 -0.181694 -0.0433247 -0.816158 -0.181684 -0.043321 83.8342 -48.8656 -110.568 15.9754 -14.2731 0.628665 13.5698 0.974466 -101.86 -7.90603 -0.37458 2.05634 -100.704 -41.8798 59.6671 -20.4379 4.17529 5.19492 -10.7321 -4.91207 -97.8312 15.8064 1.08574 2.97261 7.33535 0.514893 3.72406 -10.7559 -0.132254 -1.82962 
-56.466 97.3551 46.8689 155.006 -86.997 154.877 -171.97 1.67888 91.5498 -7.29304 9.55726 -0.208305 59.8575 2.91088 8.01582 30.3814 2.70435 -12.4459 177.046 1.96185 89.0778 -11.9885 5.74978 -0.964849 64.0947 -1.51335 -0.810516 29.7387 -0.438656 9.11176 -0.0199286 6.69711 -90.043 13.4796 -0.0603123 -0.0784263 1.80868 -0.0637074 -0.075705 -20.7265 -0.0339591 -0.0929266 -0.713818 -0.0339634 -0.0929391 85.0415 -47.8863 -109.051 14.3233 -11.3406 -2.23575 11.2305 -0.0889719 -106.998 -5.44716 -0.250933 3.70756 -100.65 -41.6971 59.6697 -17.5592 1.07726 4.18257 -5.29412 -3.79962 -104.893 14.6077 1.25216 4.65921 7.62895 0.514149 3.35746 -10.4165 -0.102681 -1.34402 
-56.4302 97.3563 46.9455 155.122 -87.1248 154.849 -171.991 1.56752 91.4121 -6.89981 9.8038 -0.312122 59.3279 2.76652 8.62443 30.8623 3.17206 -13.0521 176.959 2.17469 88.9082 -12.2585 5.73913 -0.951461 64.1843 -1.48445 -0.791884 29.7227 -0.45111 9.29684 0.000507812 6.67405 -90.0457 13.5258 -0.0211042 -0.0887527 1.85486 -0.0249885 -0.0877398 -20.6803 0.00654118 -0.0909905 -0.667624 0.00654558 -0.0909925 85.9526 -47.1386 -107.879 12.6075 -5.7999 -5.29009 12.1443 -1.8754 -111.264 -1.21803 0.167821 3.58197 -100.027 -41.3731 60.5044 -14.4087 -2.18767 2.14762 -1.98909 -3.61024 -110.761 11.4273 1.29843 7.04053 8.10469 0.182965 3.62025 -10.1859 -0.486319 -1.57446 
-56.3715 97.3403 47.0391 153.555 -87.3614 153.388 -171.978 1.85645 91.438 -7.09961 9.65789 -0.318784 59.6308 2.92132 8.51404 30.9092 3.21644 -13.0979 176.984 2.25778 88.9635 -12.0501 5.507 -0.911747 64.1152 -1.50586 -0.806927 29.7914 -0.41653 8.8417 -0.031637 6.62684 -90.0691 13.6201 -0.0962713 -0.125868 1.94918 -0.101709 -0.121521 -20.5859 -0.053989 -0.148981 -0.573283 -0.0539886 -0.148986 86.3583 -46.191 -107.546 11.1197 -0.110438 -8.73525 14.2679 -4.40033 -113.522 2.7587 0.548071 1.88456 -99.0785 -40.8745 61.7923 -11.4833 -6.54578 0.294404 -3.32045 -1.92451 -114.51 9.17192 1.09256 7.27209 8.58092 0.361641 3.74439 -10.2249 -0.366091 -1.33704 
-56.3637 97.3708 47.0873 166.291 -87.3047 166.062 -171.916 1.27711 91.4309 -6.65517 9.24969 -0.323884 59.4486 2.79217 8.34287 30.6689 2.96648 -12.5009 176.964 2.21621 88.9014 -12.3746 5.24961 -0.987048 64.0168 -1.4483 -0.770419 30.2632 -0.365854 9.14645 0.0473782 6.63877 -90.0837 13.5964 0.05341 -0.174528 1.92541 0.0456816 -0.176706 -20.6097 0.103395 -0.150407 -0.597035 0.103395 -0.1504 87.2522 -45.0739 -106.473 9.67523 5.3268 -12.1685 20.0026 -6.63221 -112.909 8.18277 0.855514 -1.40182 -98.6283 -40.5253 62.3624 -8.76424 -11.9663 -2.02178 -7.43211 1.55093 -117.011 10.9493 1.06885 5.53339 8.99482 0.312317 3.75823 -9.94718 -0.440177 -1.2385 
-56.2983 97.3995 47.0913 161.873 -87.2214 161.754 -171.886 1.36933 91.4921 -6.91529 9.37961 -0.312696 59.9013 3.16609 8.16254 29.7485 2.08886 -11.8567 176.93 2.60792 88.961 -13.0101 6.49109 -0.827302 63.4551 -1.10651 -0.562662 30.7727 -0.368899 10.778 0.0316229 6.60537 -90.0919 13.6631 0.0181183 -0.186416 1.99217 0.00988954 -0.187036 -20.5429 0.0733049 -0.172351 -0.530237 0.0732992 -0.17236 87.8781 -43.8492 -105.837 8.18516 9.74248 -15.6114 24.2741 -8.75778 -112.198 11.8046 0.92133 -3.6644 -97.6676 -39.7366 63.5824 -7.01763 -19.8297 -4.97055 -15.1595 7.52142 -117.739 9.47915 0.772341 3.96145 9.24824 0.204428 3.53022 -9.72056 -0.508538 -1.1989 
